HIERARCHY
ROOT hip
{
	OFFSET 0.000000 0.000000 0.000000 
	CHANNELS 6 Xposition Yposition Zposition Xrotation Zrotation Yrotation
	JOINT abdomen
	{
		OFFSET 0.000000 3.402643 0.000000 
		CHANNELS 3 Xrotation Zrotation Yrotation
		JOINT chest
		{
			OFFSET 0.000000 8.438565 -0.680529 
			CHANNELS 3 Xrotation Zrotation Yrotation
			JOINT neck
			{
				OFFSET 0.000000 10.207942 -0.272212 
				CHANNELS 3 Xrotation Zrotation Yrotation
				JOINT head
				{
					OFFSET 0.000000 3.130431 0.000000 
					CHANNELS 3 Xrotation Zrotation Yrotation
					End Site
					{
						OFFSET 0.000000 3.130435 0.000000 
					}
				}
			}
			JOINT lCollar
			{
				OFFSET 3.470700 6.669187 -0.816635 
				CHANNELS 3 Yrotation Zrotation Xrotation
				JOINT lShldr
				{
					OFFSET 3.198488 0.000000 0.000000 
					CHANNELS 3 Zrotation Yrotation Xrotation
					JOINT lForeArm
					{
						OFFSET 10.139888 0.000000 0.000000 
						CHANNELS 3 Yrotation Zrotation Xrotation
						JOINT lHand
						{
							OFFSET 8.370511 0.000000 0.000000 
							CHANNELS 3 Zrotation Yrotation Xrotation
							End Site
							{
								OFFSET 4.083176 0.000000 0.000000 
							}
						}
					}
				}
			}
			JOINT rCollar
			{
				OFFSET -3.470700 6.669187 -0.816635 
				CHANNELS 3 Yrotation Zrotation Xrotation
				JOINT rShldr
				{
					OFFSET -3.198488 0.000000 0.000000 
					CHANNELS 3 Zrotation Yrotation Xrotation
					JOINT rForeArm
					{
						OFFSET -10.139888 0.000000 0.000000 
						CHANNELS 3 Yrotation Zrotation Xrotation
						JOINT rHand
						{
							OFFSET -8.370511 0.000000 0.000000 
							CHANNELS 3 Zrotation Yrotation Xrotation
							End Site
							{
								OFFSET -4.083176 0.000000 0.000000 
							}
						}
					}
				}
			}
		}
	}
	JOINT lThigh
	{
		OFFSET 5.308129 -1.633274 1.361059 
		CHANNELS 3 Xrotation Zrotation Yrotation
		JOINT lShin
		{
			OFFSET -2.041588 -20.007561 0.000000 
			CHANNELS 3 Xrotation Zrotation Yrotation
			JOINT lFoot
			{
				OFFSET 0.000000 -19.190928 -1.224953 
				CHANNELS 3 Xrotation Yrotation Zrotation
				End Site
				{
					OFFSET 0.000000 -2.449906 4.627600 
				}
			}
		}
	}
	JOINT rThigh
	{
		OFFSET -5.308129 -1.633274 1.361059 
		CHANNELS 3 Xrotation Zrotation Yrotation
		JOINT rShin
		{
			OFFSET 2.041588 -20.007561 0.000000 
			CHANNELS 3 Xrotation Zrotation Yrotation
			JOINT rFoot
			{
				OFFSET 0.000000 -19.190928 -1.224953 
				CHANNELS 3 Xrotation Yrotation Zrotation
				End Site
				{
					OFFSET 0.000000 -2.449906 4.627600 
				}
			}
		}
	}
}
MOTION
Frames: 13
Frame Time: 0.033333
61.629433 40.802376 19.249445 23.017576 9.492188 -46.582031 29.697266 2.773438 8.311019 -16.679688 9.394530 6.456672 -23.515625 -1.289063 -16.523438 18.105467 1.933594 -16.005859 -0.703125 2.900391 0.019037 -69.472656 -38.906250 23.323946 -94.677734 -3.193359 -35.888134 18.203136 -121.923820 -14.217274 15.273437 3.320312 -0.166016 45.624996 17.275391 -36.357422 46.503906 3.476562 -46.406841 0.703125 11.748048 0.294959 -67.186348 28.759495 -1.888801 63.868095 0.415017 -3.638846 -22.187042 10.343212 -0.872937 -41.270702 -25.133230 9.027840 45.274872 0.032197 2.691596 -2.176877 -13.937232 4.469928 
61.859356 41.151115 20.758083 23.544922 8.779296 -47.283669 29.335939 3.046875 8.594270 -16.328125 10.273438 6.630859 -23.476563 -1.347656 -17.051010 18.105467 2.285156 -16.533201 -0.527344 2.724609 0.009766 -68.730469 -39.208984 23.457029 -94.521484 -3.085937 -36.396484 18.115246 -122.089836 -14.217259 15.097657 3.320313 -0.156816 44.814453 16.787109 -37.187500 45.595703 3.623047 -47.246094 1.269531 11.728515 0.498047 -65.218987 27.849171 -1.391465 64.394905 0.424241 -3.657952 -24.340523 11.660251 0.190807 -40.325775 -24.577480 9.062796 44.738407 0.208097 2.726783 2.522203 -16.162170 5.483899 
62.053886 41.493855 22.169094 23.896484 8.437500 -47.822262 29.179688 3.437500 8.555273 -15.976563 10.800781 6.640625 -23.271484 -1.240234 -17.588100 18.457031 2.460938 -17.050779 -0.527344 2.373047 0.009766 -67.968750 -39.511719 23.685192 -94.384766 -3.173828 -36.561962 18.115246 -122.089836 -14.217259 14.746093 3.662110 -0.224609 43.828125 16.572266 -37.594872 44.794922 3.583984 -47.177734 1.445312 11.552734 0.507813 -63.115559 26.812405 -0.817736 64.402527 0.238646 -3.586844 -26.432880 12.923578 1.722485 -40.140720 -23.874594 7.751910 45.616749 0.022403 2.693120 5.054902 -19.311056 6.192557 
62.184696 41.826302 23.485779 24.082033 8.261718 -47.967350 29.023438 3.818359 8.505859 -15.976563 10.976563 6.466703 -23.242188 -0.927734 -17.978514 18.984375 2.626953 -17.382366 -0.175781 2.373047 -0.009766 -67.373047 -40.000004 24.238279 -94.091797 -3.193359 -36.728516 17.607435 -122.197258 -13.846156 14.394531 4.003906 -0.293651 43.349606 16.611328 -38.388672 43.408203 3.427734 -45.898438 2.177735 11.708984 0.724638 -60.835579 25.750050 0.072916 63.861969 0.414300 -3.803217 -28.079058 14.169275 2.400436 -41.017818 -22.985106 5.673541 48.237804 -0.163407 3.079894 5.052856 -20.708025 6.279829 
62.254772 42.147484 24.711941 24.073891 8.086445 -48.336929 28.857424 4.042969 8.399127 -15.976563 10.976563 6.115140 -23.037109 -0.634766 -18.535160 19.687502 2.802734 -17.714367 -0.175781 2.373047 -0.009766 -66.806641 -40.136719 24.661674 -93.808594 -3.046875 -36.864716 17.334009 -122.148438 -13.465300 14.042969 4.169922 -0.313210 43.183594 16.728516 -38.854610 42.822266 3.593750 -45.703125 1.972656 11.552734 0.539067 -58.827797 24.394627 1.050347 63.165623 0.410803 -3.608814 -29.142632 14.848282 3.030570 -42.780525 -21.766592 3.421134 52.105354 -0.185594 2.880276 2.358122 -19.654793 5.131698 
62.234688 42.422482 25.853712 24.073891 8.086445 -48.522480 28.710939 4.492188 8.184358 -16.152344 10.800781 5.761719 -22.675783 -0.302734 -18.750000 20.048828 2.978516 -17.880350 -0.175781 2.724609 -0.009766 -66.660164 -40.253906 25.253908 -93.525391 -3.261719 -36.699219 16.621101 -122.031250 -12.859842 13.691407 4.345703 -0.323005 43.457031 16.669922 -39.238281 42.714844 3.496094 -45.615833 1.621094 11.552734 0.517578 -56.364338 23.318945 2.192006 62.274872 0.414749 -3.903827 -30.510519 15.614581 4.045294 -44.885105 -19.831110 0.408860 56.496067 -0.361204 2.968458 -1.950762 -19.822662 3.758593 
62.128109 42.637459 26.937418 24.073891 8.086445 -48.874039 28.388670 4.775391 7.910156 -16.152344 10.625000 5.410157 -22.119143 -0.341797 -19.101561 20.576170 3.154297 -18.222656 -0.175781 2.900391 -0.009766 -66.572266 -40.283203 25.296421 -93.105469 -3.066406 -36.474613 16.542992 -121.845695 -13.016109 13.515624 4.179688 -0.273437 44.013672 16.347654 -39.150391 42.949219 3.457031 -46.065044 1.796875 11.376954 0.529272 -53.984547 22.592888 3.063243 61.751789 0.062930 -3.752724 -31.838940 16.093187 4.869836 -47.590000 -17.751064 -3.356581 61.076885 -0.548005 2.914028 -7.258161 -21.098991 2.134265 
61.941189 42.788620 27.992702 23.896484 8.251954 -49.404297 27.880859 5.058594 7.637580 -16.152344 10.449220 5.058593 -21.582031 -0.185547 -19.296875 20.751953 3.154297 -18.212351 -0.175781 3.076172 -0.009766 -66.582031 -40.332031 25.667505 -92.675781 -3.007812 -36.806644 17.128912 -121.562508 -13.396991 13.164063 4.179688 -0.244852 44.687500 15.917968 -38.066399 43.291016 3.544922 -46.260368 1.445313 11.728517 0.509799 -51.437618 21.743986 4.565847 60.710949 0.102370 -3.331489 -33.584503 16.091110 5.415956 -50.585777 -15.293145 -7.691813 65.110130 -0.894162 3.239625 -10.830787 -22.837713 0.405352 
61.668270 42.883305 29.023853 23.720703 8.437500 -50.107422 27.568359 5.556641 7.256804 -16.152344 10.449220 4.531250 -20.878908 -0.537109 -19.257843 21.103516 3.505860 -18.378904 -0.175781 2.900391 -0.009766 -66.601563 -40.390629 26.044926 -91.982422 -3.173828 -37.128910 17.490257 -121.806641 -13.611814 12.998046 3.798828 -0.322266 45.498047 15.927736 -37.507084 42.597656 3.496094 -45.742783 1.445313 12.255859 0.509886 -49.178963 21.230263 5.797369 59.999004 0.250473 -3.717799 -35.006824 16.772894 6.476320 -53.541985 -12.996946 -12.182399 67.376389 -1.064251 3.380244 -12.843492 -23.402107 -0.782205 
61.327488 42.927280 30.051334 23.369141 8.779296 -50.986328 27.060545 5.839843 6.982422 -16.328125 10.449220 4.169922 -20.175781 -0.712891 -19.238403 21.279297 3.671875 -18.378281 -0.351563 3.076172 0.000000 -67.382813 -40.527344 26.806643 -91.132813 -3.115234 -36.737751 17.060556 -121.738289 -13.396976 12.998047 3.623047 -0.283820 46.093750 15.351563 -36.618511 42.832031 3.505859 -44.775394 1.103516 13.144531 0.490502 -46.522308 20.683086 7.380378 59.286793 0.240209 -3.690232 -36.435722 16.960829 7.137000 -56.740250 -10.894767 -16.526300 68.261124 -1.064595 3.242356 -13.538681 -22.065399 -0.597232 
60.901699 42.909885 31.084940 22.841797 8.955079 -51.678169 26.738281 6.181641 6.563552 -16.679688 10.273438 3.644320 -19.482422 -0.869141 -19.043159 21.455078 3.847656 -18.193361 -0.351563 3.076172 0.000000 -67.998055 -40.527340 27.490232 -90.537109 -3.017578 -35.673317 16.337894 -121.630859 -12.645034 12.998047 3.457031 -0.244730 46.621094 14.912111 -35.378349 42.958984 3.398438 -44.423828 -0.351563 13.330078 0.244141 -43.648151 20.114309 9.155800 58.610249 -0.092597 -3.160789 -37.648109 16.718046 7.629047 -59.171650 -8.765584 -20.644722 66.859123 -1.073994 3.353296 -13.869339 -19.539038 -0.046350 
60.365185 42.825729 32.122589 22.314455 9.140625 -52.566811 26.425779 6.679687 6.181641 -16.679688 10.273438 3.292757 -18.974611 -1.201172 -18.837891 21.806641 4.199219 -18.007097 -0.351563 2.900391 0.000000 -68.476563 -40.722656 28.284645 -89.951172 -3.076172 -35.302734 16.337894 -121.630859 -12.645034 13.173828 3.457031 -0.253906 46.806641 14.140626 -35.056210 43.417973 3.339844 -44.990803 0.000000 12.451172 0.253906 -40.844231 19.742104 11.173481 58.086632 -0.102655 -3.314056 -39.414692 16.500751 8.278932 -61.579018 -6.990833 -23.665899 63.528149 -0.742130 3.071710 -14.767536 -16.052038 0.848010 
59.733604 42.664043 33.173466 21.611326 9.306641 -52.919926 26.103514 7.021484 5.742188 -16.503906 10.097656 2.589603 -18.974611 -1.376953 -18.818357 22.167971 4.375000 -17.997303 -0.351563 2.900391 0.000000 -69.101563 -41.191410 29.003906 -89.384766 -3.134766 -35.468750 17.060556 -121.738289 -13.396976 12.998047 3.457031 -0.244730 47.011719 13.261719 -34.111328 43.750000 3.515625 -45.752552 0.390625 12.968736 0.451410 -38.075333 18.905670 13.143432 57.732365 -0.257476 -3.194223 -40.791721 16.886637 8.942099 -63.509232 -5.728904 -27.480606 59.141644 -0.546749 3.178827 -13.659882 -13.972564 1.381172 
